{"title":"Formula.1.2016x14.Italy.Qualifying.SkyF1HD.1080p50-smcgill1969","uid":15742516,"size":7040126884,"categoryP":"video","categoryS":"other","magnet":"?xt=urn:btih:8af63fbf7e01832152b381f449ed4b7a5754fcd7&amp;dn=Formula.1.2016x14.Italy.Qualifying.SkyF1HD.1080p50-smcgill1969&amp;tr=udp%3A%2F%2Ftracker.leechers-paradise.org%3A6969&amp;tr=udp%3A%2F%2Fzer0day.ch%3A1337&amp;tr=udp%3A%2F%2Fopen.demonii.com%3A1337&amp;tr=udp%3A%2F%2Ftracker.coppersurfer.tk%3A6969&amp;tr=udp%3A%2F%2Fexodus.desync.com%3A6969","seeders":12,"leechers":5,"uploader":"GaYoonFan","files":3,"time":1472933906,"description":"Formula.1.2016x14.Italy.Qualifying.SkyF1HD.1080p50-smcgill1969:\r\n\r\nQualifying from the Italian Grand Prix at Monza.\r\n\r\n Video\r\n ID : 1\r\n Format : AVC\r\n Format/Info : Advanced Video Codec\r\n Format profile :   \r\n Format settings, CABAC : Yes\r\n Format settings, ReFrames : 2 frames\r\n Format settings, GOP : M=3, N=24\r\n Codec ID : avc1\r\n Codec ID/Info : Advanced Video Coding\r\n Duration : 55mn 2s\r\n Duration_FirstFrame : 4ms\r\n Bit rate mode : Variable\r\n Bit rate : 5 999 Kbps\r\n Maximum bit rate : 12.4 Mbps\r\n Width : 1 920 pixels\r\n Height : 1 080 pixels\r\n Original height : 1 088 pixels\r\n Display aspect ratio : 16:9\r\n Original display aspect ratio : 16:9\r\n Frame rate mode : Constant\r\n Frame rate : 50.000 fps\r\n Color space : YUV\r\n Chroma subsampling : 4:2:0\r\n Bit depth : 8 bits\r\n Scan type : Progressive\r\n Bits/(Pixel*Frame) : 0.058\r\n Stream size : 2.31 GiB (96%)\r\n Language : English\r\n Encoded date : UTC 2016-09-03 10:47:37\r\n Tagged date : UTC 2016-09-03 11:55:18\r\n\r\n Audio\r\n ID : 2\r\n Format : AAC\r\n Format/Info : Advanced Audio Codec\r\n Format profile : LC\r\n Codec ID : 40\r\n Duration : 55mn 2s\r\n Source duration : 55mn 2s\r\n Bit rate mode : Constant\r\n Bit rate : 256 Kbps\r\n Channel(s) : 2 channels\r\n Channel positions : Front: L R\r\n Sampling rate : 48.0 KHz\r\n Frame rate : 46.875 fps (1024 spf)\r\n Compression mode : Lossy\r\n Stream size : 99.8 MiB (4%)\r\n Source stream size : 99.8 MiB (4%)\r\n Language : English\r\n Encoded date : UTC 2016-09-03 10:47:37\r\n Tagged date : UTC 2016-09-03 11:55:18","torrent":{"xt":"urn:btih:8af63fbf7e01832152b381f449ed4b7a5754fcd7","amp;dn":"Formula.1.2016x14.Italy.Qualifying.SkyF1HD.1080p50-smcgill1969","amp;tr":["udp%3A%2F%2Ftracker.leechers-paradise.org%3A6969","udp%3A%2F%2Fzer0day.ch%3A1337","udp%3A%2F%2Fopen.demonii.com%3A1337","udp%3A%2F%2Ftracker.coppersurfer.tk%3A6969","udp%3A%2F%2Fexodus.desync.com%3A6969"],"infoHash":"8af63fbf7e01832152b381f449ed4b7a5754fcd7","infoHashBuffer":{"type":"Buffer","data":[138,246,63,191,126,1,131,33,82,179,129,244,73,237,75,122,87,84,252,215]},"announce":[],"urlList":[]}}